<?xml version="1.0" encoding="UTF-8" standalone="no"?>
<svg
   viewBox="0 0 640 512"
   version="1.1"
   id="svg2"
   sodipodi:docname="messages.svg"
   inkscape:version="1.3.2 (091e20ef0f, 2023-11-25, custom)"
   xmlns:inkscape="http://www.inkscape.org/namespaces/inkscape"
   xmlns:sodipodi="http://sodipodi.sourceforge.net/DTD/sodipodi-0.dtd"
   xmlns="http://www.w3.org/2000/svg"
   xmlns:svg="http://www.w3.org/2000/svg">
  <sodipodi:namedview
     id="namedview2"
     pagecolor="#ffffff"
     bordercolor="#000000"
     borderopacity="0.25"
     inkscape:showpageshadow="2"
     inkscape:pageopacity="0.0"
     inkscape:pagecheckerboard="0"
     inkscape:deskcolor="#d1d1d1"
     inkscape:zoom="1.4984375"
     inkscape:cx="319.66632"
     inkscape:cy="255.93326"
     inkscape:window-width="1854"
     inkscape:window-height="974"
     inkscape:window-x="0"
     inkscape:window-y="0"
     inkscape:window-maximized="1"
     inkscape:current-layer="svg2" />
  <!--! Font Awesome Pro 6.4.0 by @fontawesome - https://fontawesome.com License - https://fontawesome.com/license (Commercial License) Copyright 2023 Fonticons, Inc. -->
  <defs
     id="defs1">
    <style
       id="style1">.fa-secondary{opacity:.4}</style>
  </defs>
  <path
     class="fa-primary"
     d="M0 64C0 28.7 28.7 0 64 0H352c35.3 0 64 28.7 64 64V256c0 35.3-28.7 64-64 64H202.7l-81.1 60.8c-4.8 3.6-11.3 4.2-16.8 1.5s-8.8-8.2-8.8-14.3V320H64c-35.3 0-64-28.7-64-64V64z"
     id="path1"
     style="fill:#e8ca5e;fill-opacity:1" />
  <path
     class="fa-secondary"
     d="M256 352v32c0 35.3 28.7 64 64 64H437.3l81.1 60.8c4.8 3.6 11.3 4.2 16.8 1.5s8.8-8.2 8.8-14.3V448h32c35.3 0 64-28.7 64-64V192c0-35.3-28.7-64-64-64H448V256c0 53-43 96-96 96H256z"
     id="path2"
     style="fill:#e8ca5e;fill-opacity:1" />
</svg>
